<svg xmlns="http://www.w3.org/2000/svg" viewBox="0 0 800 400" width="800" height="400" role="img">
<defs><linearGradient id="months" x1="0" y1="0" x2="1" y2="1">
    <stop offset="0" stop-color="#87102C"/>
    <stop offset="1" stop-color="#4A0817"/>
  </linearGradient></defs>
<rect width="800" height="400" fill="url(#months)"/>
  <g><rect x="72" y="138" width="20" height="20" rx="4" fill="#FFF4F6" fill-opacity="0.16"/>
  <rect x="98" y="138" width="20" height="20" rx="4" fill="#FFF4F6" fill-opacity="0.17"/>
  <rect x="124" y="138" width="20" height="20" rx="4" fill="#FFF4F6" fill-opacity="0.17"/>
  <rect x="150" y="138" width="20" height="20" rx="4" fill="#FFF4F6" fill-opacity="0.18"/>
  <rect x="176" y="138" width="20" height="20" rx="4" fill="#FFF4F6" fill-opacity="0.19"/>
  <rect x="202" y="138" width="20" height="20" rx="4" fill="#FFF4F6" fill-opacity="0.19"/>
  <rect x="72" y="164" width="20" height="20" rx="4" fill="#FFF4F6" fill-opacity="0.20"/>
  <rect x="98" y="164" width="20" height="20" rx="4" fill="#FFF4F6" fill-opacity="0.20"/>
  <rect x="124" y="164" width="20" height="20" rx="4" fill="#FFF4F6" fill-opacity="0.21"/>
  <rect x="150" y="164" width="20" height="20" rx="4" fill="#FFF4F6" fill-opacity="0.22"/>
  <rect x="176" y="164" width="20" height="20" rx="4" fill="#FFF4F6" fill-opacity="0.22"/>
  <rect x="202" y="164" width="20" height="20" rx="4" fill="#FFF4F6" fill-opacity="0.23"/>
  <rect x="72" y="190" width="20" height="20" rx="4" fill="#FFF4F6" fill-opacity="0.24"/>
  <rect x="98" y="190" width="20" height="20" rx="4" fill="#FFF4F6" fill-opacity="0.24"/>
  <rect x="124" y="190" width="20" height="20" rx="4" fill="#FFF4F6" fill-opacity="0.25"/>
  <rect x="150" y="190" width="20" height="20" rx="4" fill="#FFF4F6" fill-opacity="0.26"/>
  <rect x="176" y="190" width="20" height="20" rx="4" fill="#FFF4F6" fill-opacity="0.26"/>
  <rect x="202" y="190" width="20" height="20" rx="4" fill="#FFF4F6" fill-opacity="0.27"/>
  <rect x="72" y="216" width="20" height="20" rx="4" fill="#FFF4F6" fill-opacity="0.27"/>
  <rect x="98" y="216" width="20" height="20" rx="4" fill="#FFF4F6" fill-opacity="0.28"/>
  <rect x="124" y="216" width="20" height="20" rx="4" fill="#FFF4F6" fill-opacity="0.29"/>
  <rect x="150" y="216" width="20" height="20" rx="4" fill="#FFF4F6" fill-opacity="0.29"/>
  <rect x="176" y="216" width="20" height="20" rx="4" fill="#FFF4F6" fill-opacity="0.30"/>
  <rect x="202" y="216" width="20" height="20" rx="4" fill="#FFF4F6" fill-opacity="0.31"/>
  <rect x="72" y="242" width="20" height="20" rx="4" fill="#FFF4F6" fill-opacity="0.31"/>
  <rect x="98" y="242" width="20" height="20" rx="4" fill="#FFF4F6" fill-opacity="0.32"/>
  <rect x="124" y="242" width="20" height="20" rx="4" fill="#FFF4F6" fill-opacity="0.33"/>
  <rect x="150" y="242" width="20" height="20" rx="4" fill="#FFF4F6" fill-opacity="0.33"/>
  <rect x="176" y="242" width="20" height="20" rx="4" fill="#FFF4F6" fill-opacity="0.34"/>
  <rect x="202" y="242" width="20" height="20" rx="4" fill="#FFF4F6" fill-opacity="0.34"/>
  <rect x="246" y="138" width="20" height="20" rx="4" fill="#FFF4F6" fill-opacity="0.35"/>
  <rect x="272" y="138" width="20" height="20" rx="4" fill="#FFF4F6" fill-opacity="0.36"/>
  <rect x="298" y="138" width="20" height="20" rx="4" fill="#FFF4F6" fill-opacity="0.36"/>
  <rect x="324" y="138" width="20" height="20" rx="4" fill="#FFF4F6" fill-opacity="0.37"/>
  <rect x="350" y="138" width="20" height="20" rx="4" fill="#FFF4F6" fill-opacity="0.38"/>
  <rect x="376" y="138" width="20" height="20" rx="4" fill="#FFF4F6" fill-opacity="0.38"/>
  <rect x="246" y="164" width="20" height="20" rx="4" fill="#FFF4F6" fill-opacity="0.39"/>
  <rect x="272" y="164" width="20" height="20" rx="4" fill="#FFF4F6" fill-opacity="0.40"/>
  <rect x="298" y="164" width="20" height="20" rx="4" fill="#FFF4F6" fill-opacity="0.40"/>
  <rect x="324" y="164" width="20" height="20" rx="4" fill="#FFF4F6" fill-opacity="0.41"/>
  <rect x="350" y="164" width="20" height="20" rx="4" fill="#FFF4F6" fill-opacity="0.41"/>
  <rect x="376" y="164" width="20" height="20" rx="4" fill="#FFF4F6" fill-opacity="0.42"/>
  <rect x="246" y="190" width="20" height="20" rx="4" fill="#FFF4F6" fill-opacity="0.43"/>
  <rect x="272" y="190" width="20" height="20" rx="4" fill="#FFF4F6" fill-opacity="0.43"/>
  <rect x="298" y="190" width="20" height="20" rx="4" fill="#FFF4F6" fill-opacity="0.44"/>
  <rect x="324" y="190" width="20" height="20" rx="4" fill="#FFF4F6" fill-opacity="0.45"/>
  <rect x="350" y="190" width="20" height="20" rx="4" fill="#FFF4F6" fill-opacity="0.45"/>
  <rect x="376" y="190" width="20" height="20" rx="4" fill="#FFF4F6" fill-opacity="0.46"/>
  <rect x="246" y="216" width="20" height="20" rx="4" fill="#FFF4F6" fill-opacity="0.47"/>
  <rect x="272" y="216" width="20" height="20" rx="4" fill="#FFF4F6" fill-opacity="0.47"/>
  <rect x="298" y="216" width="20" height="20" rx="4" fill="#FFF4F6" fill-opacity="0.48"/>
  <rect x="324" y="216" width="20" height="20" rx="4" fill="#FFF4F6" fill-opacity="0.49"/>
  <rect x="350" y="216" width="20" height="20" rx="4" fill="#FFF4F6" fill-opacity="0.49"/>
  <rect x="376" y="216" width="20" height="20" rx="4" fill="#FFF4F6" fill-opacity="0.50"/>
  <rect x="246" y="242" width="20" height="20" rx="4" fill="#FFF4F6" fill-opacity="0.50"/>
  <rect x="272" y="242" width="20" height="20" rx="4" fill="#FFF4F6" fill-opacity="0.51"/>
  <rect x="298" y="242" width="20" height="20" rx="4" fill="#FFF4F6" fill-opacity="0.52"/>
  <rect x="324" y="242" width="20" height="20" rx="4" fill="#FFF4F6" fill-opacity="0.52"/>
  <rect x="350" y="242" width="20" height="20" rx="4" fill="#FFF4F6" fill-opacity="0.53"/>
  <rect x="376" y="242" width="20" height="20" rx="4" fill="#FFF4F6" fill-opacity="0.54"/>
  <rect x="420" y="138" width="20" height="20" rx="4" fill="#FFF4F6" fill-opacity="0.54"/>
  <rect x="446" y="138" width="20" height="20" rx="4" fill="#FFF4F6" fill-opacity="0.55"/>
  <rect x="472" y="138" width="20" height="20" rx="4" fill="#FFF4F6" fill-opacity="0.56"/>
  <rect x="498" y="138" width="20" height="20" rx="4" fill="#FFF4F6" fill-opacity="0.56"/>
  <rect x="524" y="138" width="20" height="20" rx="4" fill="#FFF4F6" fill-opacity="0.57"/>
  <rect x="550" y="138" width="20" height="20" rx="4" fill="#FFF4F6" fill-opacity="0.57"/>
  <rect x="420" y="164" width="20" height="20" rx="4" fill="#FFF4F6" fill-opacity="0.58"/>
  <rect x="446" y="164" width="20" height="20" rx="4" fill="#FFF4F6" fill-opacity="0.59"/>
  <rect x="472" y="164" width="20" height="20" rx="4" fill="#FFF4F6" fill-opacity="0.59"/>
  <rect x="498" y="164" width="20" height="20" rx="4" fill="#FFF4F6" fill-opacity="0.60"/>
  <rect x="524" y="164" width="20" height="20" rx="4" fill="#FFF4F6" fill-opacity="0.61"/>
  <rect x="550" y="164" width="20" height="20" rx="4" fill="#FFF4F6" fill-opacity="0.61"/>
  <rect x="420" y="190" width="20" height="20" rx="4" fill="#FFF4F6" fill-opacity="0.62"/>
  <rect x="446" y="190" width="20" height="20" rx="4" fill="#FFF4F6" fill-opacity="0.63"/>
  <rect x="472" y="190" width="20" height="20" rx="4" fill="#FFF4F6" fill-opacity="0.63"/>
  <rect x="498" y="190" width="20" height="20" rx="4" fill="#FFF4F6" fill-opacity="0.64"/>
  <rect x="524" y="190" width="20" height="20" rx="4" fill="#FFF4F6" fill-opacity="0.64"/>
  <rect x="550" y="190" width="20" height="20" rx="4" fill="#FFF4F6" fill-opacity="0.65"/>
  <rect x="420" y="216" width="20" height="20" rx="4" fill="#FFF4F6" fill-opacity="0.66"/>
  <rect x="446" y="216" width="20" height="20" rx="4" fill="#FFF4F6" fill-opacity="0.66"/>
  <rect x="472" y="216" width="20" height="20" rx="4" fill="#FFF4F6" fill-opacity="0.67"/>
  <rect x="498" y="216" width="20" height="20" rx="4" fill="#FFF4F6" fill-opacity="0.68"/>
  <rect x="524" y="216" width="20" height="20" rx="4" fill="#FFF4F6" fill-opacity="0.68"/>
  <rect x="550" y="216" width="20" height="20" rx="4" fill="#FFF4F6" fill-opacity="0.69"/>
  <rect x="420" y="242" width="20" height="20" rx="4" fill="#FFF4F6" fill-opacity="0.70"/>
  <rect x="446" y="242" width="20" height="20" rx="4" fill="#FFF4F6" fill-opacity="0.70"/>
  <rect x="472" y="242" width="20" height="20" rx="4" fill="#FFF4F6" fill-opacity="0.71"/>
  <rect x="498" y="242" width="20" height="20" rx="4" fill="#FFF4F6" fill-opacity="0.71"/>
  <rect x="524" y="242" width="20" height="20" rx="4" fill="#FFF4F6" fill-opacity="0.72"/>
  <rect x="550" y="242" width="20" height="20" rx="4" fill="#FFF4F6" fill-opacity="0.73"/>
  <rect x="594" y="138" width="20" height="20" rx="4" fill="#FFF4F6" fill-opacity="0.73"/>
  <rect x="620" y="138" width="20" height="20" rx="4" fill="#FFF4F6" fill-opacity="0.74"/>
  <rect x="646" y="138" width="20" height="20" rx="4" fill="#E8B44A" fill-opacity="0.95"/>
  <rect x="672" y="138" width="20" height="20" rx="4" fill="#E8B44A" fill-opacity="0.95"/>
  <rect x="698" y="138" width="20" height="20" rx="4" fill="#E8B44A" fill-opacity="0.95"/>
  <rect x="724" y="138" width="20" height="20" rx="4" fill="#E8B44A" fill-opacity="0.95"/>
  <rect x="594" y="164" width="20" height="20" rx="4" fill="#E8B44A" fill-opacity="0.95"/>
  <rect x="620" y="164" width="20" height="20" rx="4" fill="#E8B44A" fill-opacity="0.95"/>
  <rect x="646" y="164" width="20" height="20" rx="4" fill="#E8B44A" fill-opacity="0.95"/>
  <rect x="672" y="164" width="20" height="20" rx="4" fill="#E8B44A" fill-opacity="0.95"/>
  <rect x="698" y="164" width="20" height="20" rx="4" fill="#E8B44A" fill-opacity="0.95"/>
  <rect x="724" y="164" width="20" height="20" rx="4" fill="#E8B44A" fill-opacity="0.95"/>
  <rect x="594" y="190" width="20" height="20" rx="4" fill="#E8B44A" fill-opacity="0.95"/>
  <rect x="620" y="190" width="20" height="20" rx="4" fill="#E8B44A" fill-opacity="0.95"/>
  <rect x="646" y="190" width="20" height="20" rx="4" fill="#E8B44A" fill-opacity="0.95"/>
  <rect x="672" y="190" width="20" height="20" rx="4" fill="#E8B44A" fill-opacity="0.95"/>
  <rect x="698" y="190" width="20" height="20" rx="4" fill="#E8B44A" fill-opacity="0.95"/>
  <rect x="724" y="190" width="20" height="20" rx="4" fill="#E8B44A" fill-opacity="0.95"/>
  <rect x="594" y="216" width="20" height="20" rx="4" fill="#E8B44A" fill-opacity="0.95"/>
  <rect x="620" y="216" width="20" height="20" rx="4" fill="#E8B44A" fill-opacity="0.95"/>
  <rect x="646" y="216" width="20" height="20" rx="4" fill="#E8B44A" fill-opacity="0.95"/>
  <rect x="672" y="216" width="20" height="20" rx="4" fill="#E8B44A" fill-opacity="0.95"/>
  <rect x="698" y="216" width="20" height="20" rx="4" fill="#E8B44A" fill-opacity="0.95"/>
  <rect x="724" y="216" width="20" height="20" rx="4" fill="#E8B44A" fill-opacity="0.95"/>
  <rect x="594" y="242" width="20" height="20" rx="4" fill="#E8B44A" fill-opacity="0.95"/>
  <rect x="620" y="242" width="20" height="20" rx="4" fill="#E8B44A" fill-opacity="0.95"/>
  <rect x="646" y="242" width="20" height="20" rx="4" fill="#E8B44A" fill-opacity="0.95"/>
  <rect x="672" y="242" width="20" height="20" rx="4" fill="#E8B44A" fill-opacity="0.95"/>
  <rect x="698" y="242" width="20" height="20" rx="4" fill="#E8B44A" fill-opacity="0.95"/>
  <rect x="724" y="242" width="20" height="20" rx="4" fill="#E8B44A" fill-opacity="0.95"/></g>
</svg>
