<svg xmlns="http://www.w3.org/2000/svg" viewBox="0 0 800 400" width="800" height="400" role="img">
<defs><linearGradient id="books" x1="0" y1="0" x2="1" y2="1">
    <stop offset="0" stop-color="#87102C"/>
    <stop offset="1" stop-color="#4A0817"/>
  </linearGradient></defs>
<rect width="800" height="400" fill="url(#books)"/>
  <g><rect x="282.4" y="154.8" width="34.0" height="95.2" rx="6.0" fill="#FFF4F6" fill-opacity="0.45"/>
  <rect x="381.2" y="70.0" width="34.0" height="180.0" rx="6.0" fill="#FFF4F6" fill-opacity="0.53"/>
  <rect x="480.0" y="168.2" width="34.0" height="81.8" rx="6.0" fill="#FFF4F6" fill-opacity="0.61"/>
  <rect x="578.8" y="199.1" width="34.0" height="50.9" rx="6.0" fill="#FFF4F6" fill-opacity="0.69"/>
  <rect x="677.6" y="208.4" width="34.0" height="41.6" rx="6.0" fill="#E8B44A" fill-opacity="0.95"/></g>
  <line x1="250" y1="258" x2="744" y2="258" stroke="#FFF4F6" stroke-opacity="0.25" stroke-width="1.5"/>
  <g><circle cx="259.9" cy="276" r="5.3" fill="#E8B44A" fill-opacity="0.85"/>
  <circle cx="275.9" cy="276" r="5.3" fill="#E8B44A" fill-opacity="0.85"/>
  <circle cx="291.8" cy="276" r="5.3" fill="#E8B44A" fill-opacity="0.85"/>
  <circle cx="307.7" cy="276" r="5.3" fill="#E8B44A" fill-opacity="0.85"/>
  <circle cx="323.7" cy="276" r="5.3" fill="#E8B44A" fill-opacity="0.85"/>
  <circle cx="339.6" cy="276" r="5.3" fill="#E8B44A" fill-opacity="0.85"/>
  <circle cx="355.5" cy="276" r="5.3" fill="#E8B44A" fill-opacity="0.85"/>
  <circle cx="371.5" cy="276" r="5.3" fill="#E8B44A" fill-opacity="0.85"/>
  <circle cx="387.4" cy="276" r="5.3" fill="#E8B44A" fill-opacity="0.85"/>
  <circle cx="403.4" cy="276" r="5.3" fill="#E8B44A" fill-opacity="0.85"/>
  <circle cx="419.3" cy="276" r="5.3" fill="#E8B44A" fill-opacity="0.85"/>
  <circle cx="435.2" cy="276" r="5.3" fill="#E8B44A" fill-opacity="0.85"/>
  <circle cx="451.2" cy="276" r="5.3" fill="#E8B44A" fill-opacity="0.85"/>
  <circle cx="467.1" cy="276" r="5.3" fill="#E8B44A" fill-opacity="0.85"/>
  <circle cx="483.0" cy="276" r="5.3" fill="#E8B44A" fill-opacity="0.85"/>
  <circle cx="499.0" cy="276" r="5.3" fill="#E8B44A" fill-opacity="0.85"/>
  <circle cx="514.9" cy="276" r="5.3" fill="#E8B44A" fill-opacity="0.85"/>
  <circle cx="530.8" cy="276" r="5.3" fill="#E8B44A" fill-opacity="0.85"/>
  <circle cx="546.8" cy="276" r="5.3" fill="#E8B44A" fill-opacity="0.85"/>
  <circle cx="562.7" cy="276" r="5.3" fill="#E8B44A" fill-opacity="0.85"/>
  <circle cx="578.6" cy="276" r="5.3" fill="#E8B44A" fill-opacity="0.85"/>
  <circle cx="594.6" cy="276" r="5.3" fill="#E8B44A" fill-opacity="0.85"/>
  <circle cx="610.5" cy="276" r="5.3" fill="#E8B44A" fill-opacity="0.85"/>
  <circle cx="626.5" cy="276" r="5.3" fill="#E8B44A" fill-opacity="0.85"/>
  <circle cx="642.4" cy="276" r="5.3" fill="#E8B44A" fill-opacity="0.85"/>
  <circle cx="658.3" cy="276" r="5.3" fill="#E8B44A" fill-opacity="0.85"/>
  <circle cx="674.3" cy="276" r="5.3" fill="#E8B44A" fill-opacity="0.85"/>
  <circle cx="690.2" cy="276" r="5.3" fill="#E8B44A" fill-opacity="0.85"/>
  <circle cx="706.1" cy="276" r="5.3" fill="#E8B44A" fill-opacity="0.85"/>
  <circle cx="722.1" cy="276" r="5.3" fill="#E8B44A" fill-opacity="0.85"/>
  <circle cx="738.0" cy="276" r="5.3" fill="#E8B44A" fill-opacity="0.85"/></g>
</svg>
